# xmcd
#
# Track frame offsets:
#	150
#	18369
#	36680
#	38404
#	59502
#	74863
#	97303
#	130406
#	153998
#
# Disc length: 2507 seconds
#
# Revision: 0
# Processed by: cddbd v1.5.2PL0 Copyright (c) Steve Scherf et al.
# Submitted via: audiograbber 1.83.01
#
DISCID=8609c909
DTITLE=Patrick Wind - Elements
DYEAR=1900
DGENRE=
TTITLE0=cities
TTITLE1=moving
TTITLE2=radio
TTITLE3=elements
TTITLE4=ways
TTITLE5=whales
TTITLE6=rain
TTITLE7=autumn
TTITLE8=bluebird
EXTD=
EXTT0=
EXTT1=
EXTT2=
EXTT3=
EXTT4=
EXTT5=
EXTT6=
EXTT7=
EXTT8=
PLAYORDER=
